<svg xmlns="http://www.w3.org/2000/svg" viewBox="0 0 128 128" width="128" height="128" role="img"><title>市政厅</title><g stroke-linejoin="round" stroke-linecap="round"><polygon points="9,86 55,60 119,84 74,112" fill="#736851"/><polygon points="9,80 55,54 119,78 74,106" fill="#a69872"/><path d="M17 81 L57 59 L109 79 L73 100 Z" fill="#bbad84" /><polygon points="25,72 82,84 82,53 25,41" fill="#ded0ad"/><polygon points="82,84 99.22,75.18 99.22,44.18000000000001 82,53" fill="#8c8c72"/><polygon points="22,41 83,53 62.11,28 33.61,19" fill="#697c66"/><polygon points="83,53 102.22,44.18 62.11,28" fill="#415846"/><path d="M22 41 L83 53 L102.22 44.18" fill="none" stroke="#bec3a0" stroke-width="1.5" /><polygon points="33,49 40,51 40,59 33,57" fill="#435e59"/><polygon points="72,56 79,58 79,66 72,64" fill="#435e59"/><rect x="52" y="30" width="20" height="49" rx="0" fill="#d4c29b"/><polygon points="52,30 62,16 72,30" fill="#586d56"/><circle cx="62" cy="40" r="5" fill="#eee3c8"/><path d="M62 36 V40 H65" fill="none" stroke="#425346" stroke-width="1.6" /><rect x="58" y="63" width="9" height="17" rx="0" fill="#43564a"/><path d="M48 82 H81 M45 86 H85" fill="none" stroke="#ded0ad" stroke-width="3" /></g></svg>