<svg xmlns="http://www.w3.org/2000/svg" viewBox="0 0 128 128" width="128" height="128" role="img"><title>军工厂</title><g stroke-linejoin="round" stroke-linecap="round"><polygon points="9,86 55,60 119,84 74,112" fill="#736851"/><polygon points="9,80 55,54 119,78 74,106" fill="#a69872"/><path d="M17 81 L57 59 L109 79 L73 100 Z" fill="#bbad84" /><rect x="32" y="19" width="10" height="41" rx="0" fill="#956b51"/><rect x="29" y="17" width="16" height="5" rx="0" fill="#ded0ad"/><path d="M20 75 V47 L39 35 V47 L59 37 V49 L80 39 V91 Z" fill="#bda985" stroke="#6c6d53" stroke-width="1.5" /><polygon points="80,39 108,27 108,77 80,91" fill="#778469"/><rect x="58" y="64" width="17" height="22" rx="0" fill="#3f5246"/><path d="M26 54 H34 V63 H26 Z M45 56 H53 V65 H45 Z M88 47 H101 V58 H88 Z" fill="#d9d3a1" /></g></svg>