<svg xmlns="http://www.w3.org/2000/svg" viewBox="0 0 128 128" width="128" height="128" role="img"><title>石油基地</title><g stroke-linejoin="round" stroke-linecap="round"><polygon points="9,86 55,60 119,84 74,112" fill="#736851"/><polygon points="9,80 55,54 119,78 74,106" fill="#a69872"/><path d="M17 81 L57 59 L109 79 L73 100 Z" fill="#bbad84" /><path d="M26 90 L42 43 L60 87 M31 76 H54 M35 62 H49" fill="none" stroke="#586b54" stroke-width="5" /><path d="M20 38 L72 27 L77 34 L23 46 Z" fill="#687b5e" /><path d="M69 25 Q89 28 83 46 L73 49 L70 34 Z" fill="#ad9b65" /><path d="M79 45 V84" fill="none" stroke="#3f5246" stroke-width="2" /><rect x="83" y="59" width="27" height="26" rx="3" fill="#b4b89c"/><ellipse cx="96.5" cy="59" rx="13.5" ry="6" fill="#d4d1af"/><path d="M87 71 H107" fill="none" stroke="#747f69" stroke-width="2" /></g></svg>