<svg xmlns="http://www.w3.org/2000/svg" viewBox="0 0 128 128" width="128" height="128" role="img"><title>运输站</title><g stroke-linejoin="round" stroke-linecap="round"><polygon points="9,86 55,60 119,84 74,112" fill="#736851"/><polygon points="9,80 55,54 119,78 74,106" fill="#a69872"/><path d="M17 81 L57 59 L109 79 L73 100 Z" fill="#bbad84" /><polygon points="22,65 77,34 108,47 51,79" fill="#7b8d70"/><path d="M28 67 V87 M100 50 V75 M50 76 V96" fill="none" stroke="#3f5246" stroke-width="4" /><polygon points="22,65 77,34 108,47 51,79" fill="#a6ad81"/><rect x="63" y="57" width="17" height="17" rx="1" fill="#b29364" stroke="#735b3c" stroke-width="1.5"/><path d="M65 59 L78 72 M78 59 L65 72" fill="none" stroke="#dfc291" stroke-width="1.5" /><g transform="translate(34 73) scale(1)"><rect x="0" y="0" width="29" height="19" rx="2" fill="#929a69"/><path d="M30 6 H40 L47 16 V25 H0 V19 H30 Z" fill="#526346" /><rect x="33" y="9" width="7" height="8" rx="0" fill="#c1d6cc"/><circle cx="9" cy="25" r="6" fill="#293832"/><circle cx="38" cy="25" r="6" fill="#293832"/><circle cx="9" cy="25" r="2" fill="#c4baa0"/><circle cx="38" cy="25" r="2" fill="#c4baa0"/></g></g></svg>