<svg xmlns="http://www.w3.org/2000/svg" viewBox="0 0 128 128" width="128" height="128" role="img"><title>军校</title><g stroke-linejoin="round" stroke-linecap="round"><defs><linearGradient id="bg" x2="0" y2="1"><stop stop-color="#4c5a45"/><stop offset="1" stop-color="#283a33"/></linearGradient></defs><path d="M24 8 H104 L120 24 V94 L101 117 H27 L8 94 V24 Z" fill="url(#bg)" stroke="#b79b62" stroke-width="3" /><path d="M27 15 H101 L113 28 V92 L97 109 H31 L15 92 V28 Z" fill="none" stroke="#778066" stroke-width="1" /><g transform="translate(10 9) scale(.84)"><path d="M22 54 L64 32 L106 54 Z" fill="#e1c48a" /><rect x="29" y="59" width="10" height="22" rx="1" fill="#e1c48a"/><rect x="89" y="59" width="10" height="22" rx="1" fill="#e1c48a"/><path d="M39 68 Q52 61 64 70 Q78 61 91 68 V97 Q78 90 64 99 Q51 90 39 97 Z" fill="#e1c48a" /><path d="M64 70 V97" fill="none" stroke="#2e3d35" stroke-width="3" /></g><circle cx="20" cy="25" r="2" fill="#d7ba80"/><circle cx="108" cy="25" r="2" fill="#d7ba80"/></g></svg>