<svg xmlns="http://www.w3.org/2000/svg" viewBox="0 0 128 128" width="128" height="128" role="img"><title>仓库</title><g stroke-linejoin="round" stroke-linecap="round"><defs><linearGradient id="bg" x2="0" y2="1"><stop stop-color="#4c5a45"/><stop offset="1" stop-color="#283a33"/></linearGradient></defs><path d="M24 8 H104 L120 24 V94 L101 117 H27 L8 94 V24 Z" fill="url(#bg)" stroke="#b79b62" stroke-width="3" /><path d="M27 15 H101 L113 28 V92 L97 109 H31 L15 92 V28 Z" fill="none" stroke="#778066" stroke-width="1" /><g transform="translate(10 9) scale(.84)"><path d="M20 51 L64 29 L108 51 V98 H96 V57 H32 V98 H20 Z" fill="#e1c48a" /><rect x="42" y="64" width="22" height="32" rx="1" fill="#e1c48a"/><rect x="68" y="78" width="21" height="18" rx="1" fill="#e1c48a"/><path d="M45 68 L61 90 M61 68 L45 90 M72 82 L85 92" fill="none" stroke="#2e3d35" stroke-width="2" /></g><circle cx="20" cy="25" r="2" fill="#d7ba80"/><circle cx="108" cy="25" r="2" fill="#d7ba80"/></g></svg>