<svg xmlns="http://www.w3.org/2000/svg" viewBox="0 0 128 128" width="128" height="128" role="img"><title>石油基地</title><g stroke-linejoin="round" stroke-linecap="round"><defs><linearGradient id="bg" x2="0" y2="1"><stop stop-color="#4c5a45"/><stop offset="1" stop-color="#283a33"/></linearGradient></defs><path d="M24 8 H104 L120 24 V94 L101 117 H27 L8 94 V24 Z" fill="url(#bg)" stroke="#b79b62" stroke-width="3" /><path d="M27 15 H101 L113 28 V92 L97 109 H31 L15 92 V28 Z" fill="none" stroke="#778066" stroke-width="1" /><g transform="translate(10 9) scale(.84)"><path d="M27 98 L48 46 L69 98 M37 77 H59" fill="none" stroke="#e1c48a" stroke-width="6" /><path d="M21 35 L82 23 L86 31 L24 44 Z M80 21 Q104 20 102 42 L86 49 Z" fill="#e1c48a" /><path d="M94 46 V75" fill="none" stroke="#e1c48a" stroke-width="3" /><rect x="79" y="77" width="28" height="23" rx="4" fill="#e1c48a"/><path d="M82 85 H104" fill="none" stroke="#2e3d35" stroke-width="2" /></g><circle cx="20" cy="25" r="2" fill="#d7ba80"/><circle cx="108" cy="25" r="2" fill="#d7ba80"/></g></svg>