<svg xmlns="http://www.w3.org/2000/svg" viewBox="0 0 128 128" width="128" height="128" role="img"><title>围墙</title><g stroke-linejoin="round" stroke-linecap="round"><defs><linearGradient id="bg" x2="0" y2="1"><stop stop-color="#4c5a45"/><stop offset="1" stop-color="#283a33"/></linearGradient></defs><path d="M24 8 H104 L120 24 V94 L101 117 H27 L8 94 V24 Z" fill="url(#bg)" stroke="#b79b62" stroke-width="3" /><path d="M27 15 H101 L113 28 V92 L97 109 H31 L15 92 V28 Z" fill="none" stroke="#778066" stroke-width="1" /><g transform="translate(10 9) scale(.84)"><path d="M22 98 V49 H36 V59 H48 V49 H61 V59 H72 V49 H85 V59 H99 V49 H107 V98 Z" fill="#e1c48a" /><rect x="32" y="72" width="12" height="6" rx="0" fill="#2e3d35"/><rect x="85" y="72" width="12" height="6" rx="0" fill="#2e3d35"/><path d="M56 98 V83 a10 10 0 0 1 20 0 V98 Z" fill="#2e3d35" /><rect x="24" y="30" width="22" height="14" rx="1" fill="#e1c48a"/></g><circle cx="20" cy="25" r="2" fill="#d7ba80"/><circle cx="108" cy="25" r="2" fill="#d7ba80"/></g></svg>