<svg xmlns="http://www.w3.org/2000/svg" viewBox="0 0 128 128" width="128" height="128">
  <defs>
    <radialGradient id="bgGlow_tr" cx="50%" cy="50%" r="50%">
      <stop offset="0%" stop-color="#1e293b"/>
      <stop offset="100%" stop-color="#090d16"/>
    </radialGradient>
    <linearGradient id="canvasTop" x1="0" y1="0" x2="0" y2="1">
      <stop offset="0%" stop-color="#85754e"/>
      <stop offset="100%" stop-color="#473e2a"/>
    </linearGradient>
    <linearGradient id="truckGreen" x1="0" y1="0" x2="0" y2="1">
      <stop offset="0%" stop-color="#556b2f"/>
      <stop offset="100%" stop-color="#2d3819"/>
    </linearGradient>
  </defs>
  <rect width="128" height="128" rx="20" fill="url(#bgGlow_tr)"/>
  <rect x="2" y="2" width="124" height="124" rx="19" fill="none" stroke="#334155" stroke-width="1.5" opacity="0.6"/>
  <ellipse cx="64" cy="114" rx="56" ry="8" fill="#000" opacity="0.7"/>

  <!-- Wheels -->
  <circle cx="26" cy="98" r="16" fill="#1e293b" stroke="#020617" stroke-width="2"/>
  <circle cx="26" cy="98" r="7" fill="#475569"/>
  <circle cx="78" cy="98" r="16" fill="#1e293b" stroke="#020617" stroke-width="2"/>
  <circle cx="78" cy="98" r="7" fill="#475569"/>
  <circle cx="106" cy="98" r="16" fill="#1e293b" stroke="#020617" stroke-width="2"/>
  <circle cx="106" cy="98" r="7" fill="#475569"/>

  <!-- Cargo Canvas Bed -->
  <path d="M46 50 C46 38 54 32 78 32 L112 32 C118 32 122 38 122 50 L122 88 L46 88 Z" fill="url(#canvasTop)" stroke="#272217" stroke-width="2"/>
  <line x1="66" y1="32" x2="66" y2="88" stroke="#383020" stroke-width="2.5"/>
  <line x1="88" y1="32" x2="88" y2="88" stroke="#383020" stroke-width="2.5"/>
  <line x1="106" y1="32" x2="106" y2="88" stroke="#383020" stroke-width="2.5"/>

  <!-- Cab -->
  <polygon points="8,92 10,72 22,70 26,54 46,54 46,92" fill="url(#truckGreen)" stroke="#1a2214" stroke-width="2"/>
  <rect x="28" y="58" width="16" height="12" rx="1" fill="#93c5fd" stroke="#1a2214" stroke-width="1.2" opacity="0.85"/>
  <rect x="6" y="74" width="6" height="18" fill="#1e293b"/>
</svg>