<svg xmlns="http://www.w3.org/2000/svg" viewBox="0 0 80 80">
  <defs><linearGradient id="field" x2="1" y2="1"><stop stop-color="#2e5269"/><stop offset="1" stop-color="#132638"/></linearGradient><linearGradient id="metal" x2="1" y2="1"><stop stop-color="#ffe1a0"/><stop offset=".55" stop-color="#c99a54"/><stop offset="1" stop-color="#f7cd7c"/></linearGradient></defs>
  <path d="M40 4 70 14v29c0 15-12 26-30 33C22 69 10 58 10 43V14Z" fill="url(#field)" stroke="url(#metal)" stroke-width="3"/>
  <path d="M40 10 64 18v25c0 12-9 21-24 27-15-6-24-15-24-27V18Z" fill="none" stroke="#f1d8a3" stroke-opacity=".45"/>
  <path d="M39 25 24 32l-9-3 7 10 14 5-8 7 12-4 12 4-8-7 14-5 7-10-9 3-15-7-1 8Z" fill="url(#metal)"/>
  <path d="m35 26 5-8 5 8-5 8Z" fill="#f8e8bf"/>
  <path d="M28 55h24M34 60h12" stroke="#d4ad67" stroke-width="2" stroke-linecap="round"/>
</svg>
